<?xml version="1.0" standalone="no"?>

<!DOCTYPE svg PUBLIC "-//W3C//DTD SVG 20010904//EN"

 "http://www.w3.org/TR/2001/REC-SVG-20010904/DTD/svg10.dtd">

<svg version="1.0" xmlns="http://www.w3.org/2000/svg"

 width="200.000000pt" height="200.000000pt" viewBox="0 0 200.000000 200.000000"

 preserveAspectRatio="xMidYMid meet">

<path fill="#20191c" stroke="none" d="
M81 173

C43 165 11 138 1 108

C0 104 0 103 3 96

C5 92 8 85 11 81

C16 74 16 74 13 69

C9 59 8 53 7 38

L7 24

L10 24

C15 24 30 27 36 30

C40 31 45 35 48 37

C57 45 56 45 67 41

C73 39 83 36 89 35

C99 34 101 34 111 35

C117 36 127 39 133 41

C144 44 144 44 149 40

C159 31 173 25 186 25

L193 25

L193 34

C193 46 191 59 187 68

C184 75 184 75 188 80

C191 85 196 93 198 100

C200 105 200 105 197 112

C196 116 192 123 190 127

C184 135 169 150 161 155

C135 172 106 179 81 173

Z

"/>

<path fill="#6d564c" stroke="none" d="
M83 174

C76 172 64 168 60 166

C59 166 56 164 53 163

L49 162

L49 161

L49 160

L46 159

C42 157 39 155 36 153

C34 151 33 150 32 150

C32 150 31 149 30 148

C29 146 27 145 27 145

C25 145 19 139 19 137

C19 137 18 135 17 134

C15 133 14 132 14 131

L14 130

L13 130

L11 129

L11 128

L11 126

L10 126

L9 126

L9 125

C9 124 8 122 7 121

C6 120 5 118 5 118

C5 117 4 115 3 112

C2 110 1 106 1 105

C1 102 8 86 9 85

L10 85

L10 83

L10 82

L11 82

L12 82

L12 81

L12 79

L13 79

C14 79 17 73 16 72

L16 71

L16 71

L17 72

L20 69

C26 63 35 56 44 50

L54 44

L54 44

L53 44

L58 43

C60 43 63 43 63 42

C66 40 82 36 92 35

C100 34 103 34 112 35

C118 36 127 39 133 41

C139 43 144 44 145 45

C148 45 162 54 168 58

C170 60 174 64 177 67

L183 72

L183 72

L184 71

L184 74

C184 75 185 78 187 79

C190 82 198 97 199 103

C200 104 199 108 197 113

L194 121

L193 121

L192 121

L191 124

L191 126

L190 126

L189 126

L189 128

L189 129

L188 130

L186 130

L186 131

C186 132 169 150 168 150

C167 150 166 151 164 153

C163 154 160 156 159 156

L156 157

L156 158

L156 159

L154 159

L151 160

L151 161

L151 162

L147 163

C144 164 141 166 139 167

C136 168 130 170 126 172

C114 175 94 176 83 174

Z

M73 160

C63 149 66 135 79 126

C87 121 89 116 90 104

C90 96 90 95 88 92

C87 90 84 88 82 87

C75 83 59 87 48 96

C43 100 30 116 29 120

C28 125 42 144 54 153

C60 157 74 164 76 164

L77 164

L73 160

Z

M134 160

C142 155 151 149 158 142

C165 134 171 123 171 120

C170 116 157 100 152 96

C145 90 137 87 129 86

C122 85 121 85 118 87

C116 88 113 90 112 92

C110 95 110 96 110 104

C111 116 113 121 121 126

C128 131 132 137 133 143

C133 149 131 155 127 160

L123 164

L125 164

C126 163 130 161 134 160

Z

M111 149

C116 145 116 139 111 135

C107 132 98 131 93 133

C83 136 82 147 91 151

C96 153 107 152 111 149

Z

M152 38

L151 37

L153 37

L154 37

L153 38

C153 39 153 39 153 39

C152 39 152 39 152 38

Z

M10 24

C11 24 13 24 14 24

L16 25

L12 25

L9 25

L10 24

Z

M70 106

C68 104 67 102 67 101

C67 97 72 92 76 92

C79 92 84 97 84 101

C84 102 83 104 81 106

C77 110 74 110 70 106

Z

M119 106

C117 104 116 102 116 101

C116 97 121 92 125 92

C128 92 133 97 133 101

C133 104 128 109 125 109

C123 109 121 108 119 106

Z

"/>

<path fill="#fcfdfd" stroke="none" d="
M89 168

C78 165 68 154 68 145

C68 140 73 132 77 129

C86 123 90 122 100 122

C110 122 114 123 123 129

C127 132 132 140 132 145

C132 152 126 161 117 165

C112 168 110 168 102 169

C97 169 91 169 89 168

Z

M106 153

C108 152 111 151 113 149

C115 147 116 145 116 142

C116 139 115 137 113 135

C107 129 93 129 87 135

C85 137 84 139 84 142

C84 151 95 156 106 153

Z

M29 107

C28 105 27 102 27 102

C27 99 38 90 46 86

C49 85 55 83 58 82

C64 81 71 82 72 83

L72 84

L67 85

C56 88 44 96 37 106

C35 109 33 111 33 111

C32 111 30 109 29 107

Z

M163 106

C156 96 144 88 133 85

L128 84

L128 83

C129 82 136 81 142 82

C145 83 151 85 155 86

C162 90 173 99 173 102

C173 104 168 111 167 111

C167 111 165 109 163 106

Z

M72 107

C65 103 69 92 77 94

C82 95 84 102 79 106

C76 108 75 108 72 107

Z

M121 106

C115 102 118 94 125 94

C128 94 129 95 131 98

C133 101 131 105 127 107

C124 108 124 108 121 106

Z

"/>

</svg>

